<svg xmlns="http://www.w3.org/2000/svg" viewBox="0 0 64 64" role="img" aria-label="Quotex Insurance">
  <rect x="0.75" y="0.75" width="62.5" height="62.5" rx="11.5" fill="#ffffff"/>
  <rect x="1.5" y="1.5" width="61" height="61" rx="10.75" fill="none" stroke="#d9d4c7" stroke-width="1.5"/>
  <path d="M31.74 45.33L35.52 45.11Q36.75 47.31 38.58 49.00Q40.40 50.69 42.45 51.64Q44.50 52.59 46.34 52.59L46.34 52.59Q46.74 52.59 47.18 52.56Q47.62 52.54 47.93 52.50L47.93 52.50Q48.06 52.41 48.13 52.65Q48.19 52.89 48.10 52.94L48.10 52.94Q47.14 53.16 46.19 53.31Q45.24 53.47 44.36 53.47L44.36 53.47Q42.34 53.47 40.05 52.52Q37.76 51.57 35.61 49.77Q33.45 47.97 31.74 45.33L31.74 45.33ZM31.25 45.94L31.25 45.94Q28.08 45.94 25.51 44.82Q22.94 43.70 21.11 41.72Q19.28 39.74 18.29 37.16Q17.30 34.59 17.30 31.69L17.30 31.69Q17.30 28.12 18.69 25.44Q20.08 22.75 22.36 20.97Q24.65 19.19 27.38 18.31Q30.11 17.43 32.79 17.43L32.79 17.43Q36.05 17.43 38.62 18.60Q41.20 19.76 43 21.74Q44.80 23.72 45.75 26.23Q46.70 28.74 46.70 31.38L46.70 31.38Q46.70 34.46 45.46 37.10Q44.23 39.74 42.10 41.72Q39.96 43.70 37.17 44.82Q34.38 45.94 31.25 45.94ZM32.79 45.02L32.79 45.02Q35.78 45.02 38.16 43.59Q40.54 42.16 41.94 39.39Q43.35 36.61 43.35 32.61L43.35 32.61Q43.35 28.47 41.83 25.28Q40.32 22.09 37.52 20.27Q34.73 18.44 30.94 18.44L30.94 18.44Q26.06 18.44 23.35 21.59Q20.65 24.73 20.65 30.15L20.65 30.15Q20.65 33.27 21.51 35.98Q22.36 38.68 23.99 40.73Q25.62 42.77 27.86 43.90Q30.11 45.02 32.79 45.02Z" fill="#0d0c09"/>
</svg>
